<svg viewBox="0 0 1440 320" xmlns="http://www.w3.org/2000/svg" preserveAspectRatio="none">
  <defs>
    <linearGradient id="zigGradientDark" x1="0%" y1="0%" x2="100%" y2="100%">
      <stop offset="0%" stop-color="#1a2e2b" />
      <stop offset="100%" stop-color="#1b2431" />
    </linearGradient>
  </defs>
  <path 
    fill="url(#zigGradientDark)" 
    fill-opacity="1" 
    d="M0,128L48,138.7C96,149,192,171,288,170.7C384,171,480,149,576,154.7C672,160,768,192,864,181.3C960,171,1056,117,1152,112C1248,107,1344,149,1392,170.7L1440,192L1440,0L1392,0C1344,0,1248,0,1152,0C1056,0,960,0,864,0C768,0,672,0,576,0C480,0,384,0,288,0C192,0,96,0,48,0L0,0Z" />
</svg>
